<svg xmlns="http://www.w3.org/2000/svg" xmlns:xlink="http://www.w3.org/1999/xlink" zoomAndPan="magnify" preserveAspectRatio="xMidYMid meet" version="1.0" viewBox="15.42 111 345.77 147"><defs><g/><clipPath id="ae2c762c70"><path d="M 159 147 L 227 147 L 227 215 L 159 215 Z M 159 147 " clip-rule="nonzero"/></clipPath><clipPath id="bb3d27a61f"><path d="M 192.820312 214.542969 C 184.261719 214.542969 175.699219 211.285156 169.183594 204.769531 C 162.875 198.449219 159.386719 190.058594 159.386719 181.121094 C 159.386719 172.183594 162.863281 163.792969 169.183594 157.484375 C 182.214844 144.453125 203.429688 144.441406 216.46875 157.484375 C 222.78125 163.792969 226.265625 172.195312 226.265625 181.121094 C 226.265625 190.046875 222.792969 198.449219 216.46875 204.769531 C 209.945312 211.273438 201.382812 214.542969 192.820312 214.542969 Z M 192.820312 161.667969 C 187.839844 161.667969 182.855469 163.566406 179.058594 167.359375 C 175.378906 171.027344 173.355469 175.921875 173.355469 181.121094 C 173.355469 186.324219 175.378906 191.203125 179.058594 194.882812 C 186.648438 202.472656 198.992188 202.472656 206.570312 194.882812 C 210.253906 191.214844 212.277344 186.324219 212.277344 181.121094 C 212.277344 175.921875 210.253906 171.039062 206.570312 167.359375 C 202.777344 163.566406 197.792969 161.667969 192.820312 161.667969 Z M 192.820312 161.667969 " clip-rule="nonzero"/></clipPath><linearGradient x1="-170.591833" gradientTransform="matrix(0.808222, 0.80825, -0.80825, 0.808222, 1603.414886, -1023.781895)" y1="1617.98706" x2="-85.852127" gradientUnits="userSpaceOnUse" y2="1617.98706" id="9c3da9e71e"><stop stop-opacity="1" stop-color="rgb(18.399048%, 70.599365%, 68.199158%)" offset="0"/><stop stop-opacity="1" stop-color="rgb(18.399048%, 70.599365%, 68.199158%)" offset="0.125"/><stop stop-opacity="1" stop-color="rgb(18.399048%, 70.599365%, 68.199158%)" offset="0.15625"/><stop stop-opacity="1" stop-color="rgb(18.478394%, 70.449829%, 68.17627%)" offset="0.171875"/><stop stop-opacity="1" stop-color="rgb(18.669128%, 70.091248%, 68.122864%)" offset="0.175781"/><stop stop-opacity="1" stop-color="rgb(18.780518%, 69.882202%, 68.092346%)" offset="0.179688"/><stop stop-opacity="1" stop-color="rgb(18.890381%, 69.673157%, 68.060303%)" offset="0.183594"/><stop stop-opacity="1" stop-color="rgb(19.00177%, 69.465637%, 68.029785%)" offset="0.1875"/><stop stop-opacity="1" stop-color="rgb(19.111633%, 69.256592%, 67.997742%)" offset="0.191406"/><stop stop-opacity="1" stop-color="rgb(19.223022%, 69.047546%, 67.967224%)" offset="0.195312"/><stop stop-opacity="1" stop-color="rgb(19.334412%, 68.838501%, 67.936707%)" offset="0.199219"/><stop stop-opacity="1" stop-color="rgb(19.445801%, 68.629456%, 67.906189%)" offset="0.203125"/><stop stop-opacity="1" stop-color="rgb(19.555664%, 68.42041%, 67.874146%)" offset="0.207031"/><stop stop-opacity="1" stop-color="rgb(19.667053%, 68.212891%, 67.843628%)" offset="0.210937"/><stop stop-opacity="1" stop-color="rgb(19.776917%, 68.003845%, 67.811584%)" offset="0.214844"/><stop stop-opacity="1" stop-color="rgb(19.888306%, 67.7948%, 67.781067%)" offset="0.21875"/><stop stop-opacity="1" stop-color="rgb(19.999695%, 67.585754%, 67.749023%)" offset="0.222656"/><stop stop-opacity="1" stop-color="rgb(20.111084%, 67.378235%, 67.718506%)" offset="0.226562"/><stop stop-opacity="1" stop-color="rgb(20.220947%, 67.169189%, 67.687988%)" offset="0.230469"/><stop stop-opacity="1" stop-color="rgb(20.332336%, 66.960144%, 67.657471%)" offset="0.234375"/><stop stop-opacity="1" stop-color="rgb(20.4422%, 66.751099%, 67.625427%)" offset="0.238281"/><stop stop-opacity="1" stop-color="rgb(20.553589%, 66.542053%, 67.59491%)" offset="0.242187"/><stop stop-opacity="1" stop-color="rgb(20.664978%, 66.333008%, 67.562866%)" offset="0.246094"/><stop stop-opacity="1" stop-color="rgb(20.776367%, 66.125488%, 67.532349%)" offset="0.25"/><stop stop-opacity="1" stop-color="rgb(20.88623%, 65.916443%, 67.500305%)" offset="0.253906"/><stop stop-opacity="1" stop-color="rgb(20.99762%, 65.707397%, 67.469788%)" offset="0.257812"/><stop stop-opacity="1" stop-color="rgb(21.107483%, 65.498352%, 67.437744%)" offset="0.261719"/><stop stop-opacity="1" stop-color="rgb(21.218872%, 65.289307%, 67.407227%)" offset="0.265625"/><stop stop-opacity="1" stop-color="rgb(21.330261%, 65.080261%, 67.376709%)" offset="0.269531"/><stop stop-opacity="1" stop-color="rgb(21.44165%, 64.872742%, 67.346191%)" offset="0.273437"/><stop stop-opacity="1" stop-color="rgb(21.551514%, 64.663696%, 67.314148%)" offset="0.277344"/><stop stop-opacity="1" stop-color="rgb(21.662903%, 64.454651%, 67.28363%)" offset="0.28125"/><stop stop-opacity="1" stop-color="rgb(21.772766%, 64.245605%, 67.251587%)" offset="0.285156"/><stop stop-opacity="1" stop-color="rgb(21.884155%, 64.03656%, 67.221069%)" offset="0.289062"/><stop stop-opacity="1" stop-color="rgb(21.995544%, 63.827515%, 67.189026%)" offset="0.292969"/><stop stop-opacity="1" stop-color="rgb(22.106934%, 63.619995%, 67.158508%)" offset="0.296875"/><stop stop-opacity="1" stop-color="rgb(22.216797%, 63.41095%, 67.126465%)" offset="0.300781"/><stop stop-opacity="1" stop-color="rgb(22.328186%, 63.201904%, 67.095947%)" offset="0.304687"/><stop stop-opacity="1" stop-color="rgb(22.439575%, 62.992859%, 67.06543%)" offset="0.308594"/><stop stop-opacity="1" stop-color="rgb(22.550964%, 62.783813%, 67.034912%)" offset="0.3125"/><stop stop-opacity="1" stop-color="rgb(22.660828%, 62.574768%, 67.002869%)" offset="0.316406"/><stop stop-opacity="1" stop-color="rgb(22.772217%, 62.367249%, 66.972351%)" offset="0.320312"/><stop stop-opacity="1" stop-color="rgb(22.88208%, 62.158203%, 66.940308%)" offset="0.324219"/><stop stop-opacity="1" stop-color="rgb(22.993469%, 61.949158%, 66.90979%)" offset="0.328125"/><stop stop-opacity="1" stop-color="rgb(23.104858%, 61.740112%, 66.877747%)" offset="0.332031"/><stop stop-opacity="1" stop-color="rgb(23.216248%, 61.531067%, 66.847229%)" offset="0.335937"/><stop stop-opacity="1" stop-color="rgb(23.326111%, 61.322021%, 66.816711%)" offset="0.339844"/><stop stop-opacity="1" stop-color="rgb(23.4375%, 61.114502%, 66.786194%)" offset="0.34375"/><stop stop-opacity="1" stop-color="rgb(23.547363%, 60.905457%, 66.75415%)" offset="0.347656"/><stop stop-opacity="1" stop-color="rgb(23.658752%, 60.696411%, 66.723633%)" offset="0.351562"/><stop stop-opacity="1" stop-color="rgb(23.770142%, 60.487366%, 66.691589%)" offset="0.355469"/><stop stop-opacity="1" stop-color="rgb(23.881531%, 60.27832%, 66.661072%)" offset="0.359375"/><stop stop-opacity="1" stop-color="rgb(23.991394%, 60.069275%, 66.629028%)" offset="0.363281"/><stop stop-opacity="1" stop-color="rgb(24.102783%, 59.861755%, 66.598511%)" offset="0.367187"/><stop stop-opacity="1" stop-color="rgb(24.212646%, 59.65271%, 66.566467%)" offset="0.371094"/><stop stop-opacity="1" stop-color="rgb(24.324036%, 59.443665%, 66.53595%)" offset="0.375"/><stop stop-opacity="1" stop-color="rgb(24.435425%, 59.234619%, 66.505432%)" offset="0.378906"/><stop stop-opacity="1" stop-color="rgb(24.546814%, 59.025574%, 66.474915%)" offset="0.382812"/><stop stop-opacity="1" stop-color="rgb(24.656677%, 58.816528%, 66.442871%)" offset="0.386719"/><stop stop-opacity="1" stop-color="rgb(24.768066%, 58.609009%, 66.412354%)" offset="0.390625"/><stop stop-opacity="1" stop-color="rgb(24.87793%, 58.399963%, 66.38031%)" offset="0.394531"/><stop stop-opacity="1" stop-color="rgb(24.989319%, 58.190918%, 66.349792%)" offset="0.398437"/><stop stop-opacity="1" stop-color="rgb(25.100708%, 57.981873%, 66.317749%)" offset="0.402344"/><stop stop-opacity="1" stop-color="rgb(25.212097%, 57.774353%, 66.287231%)" offset="0.40625"/><stop stop-opacity="1" stop-color="rgb(25.32196%, 57.565308%, 66.255188%)" offset="0.410156"/><stop stop-opacity="1" stop-color="rgb(25.43335%, 57.356262%, 66.22467%)" offset="0.414062"/><stop stop-opacity="1" stop-color="rgb(25.543213%, 57.147217%, 66.194153%)" offset="0.417969"/><stop stop-opacity="1" stop-color="rgb(25.654602%, 56.938171%, 66.163635%)" offset="0.421875"/><stop stop-opacity="1" stop-color="rgb(25.765991%, 56.729126%, 66.131592%)" offset="0.425781"/><stop stop-opacity="1" stop-color="rgb(25.87738%, 56.521606%, 66.101074%)" offset="0.429687"/><stop stop-opacity="1" stop-color="rgb(25.987244%, 56.312561%, 66.069031%)" offset="0.433594"/><stop stop-opacity="1" stop-color="rgb(26.098633%, 56.103516%, 66.038513%)" offset="0.4375"/><stop stop-opacity="1" stop-color="rgb(26.210022%, 55.89447%, 66.00647%)" offset="0.441406"/><stop stop-opacity="1" stop-color="rgb(26.321411%, 55.685425%, 65.975952%)" offset="0.445312"/><stop stop-opacity="1" stop-color="rgb(26.431274%, 55.476379%, 65.943909%)" offset="0.449219"/><stop stop-opacity="1" stop-color="rgb(26.542664%, 55.26886%, 65.913391%)" offset="0.453125"/><stop stop-opacity="1" stop-color="rgb(26.652527%, 55.059814%, 65.882874%)" offset="0.457031"/><stop stop-opacity="1" stop-color="rgb(26.763916%, 54.850769%, 65.852356%)" offset="0.460937"/><stop stop-opacity="1" stop-color="rgb(26.875305%, 54.641724%, 65.820312%)" offset="0.464844"/><stop stop-opacity="1" stop-color="rgb(26.986694%, 54.432678%, 65.789795%)" offset="0.46875"/><stop stop-opacity="1" stop-color="rgb(27.096558%, 54.223633%, 65.757751%)" offset="0.472656"/><stop stop-opacity="1" stop-color="rgb(27.207947%, 54.016113%, 65.727234%)" offset="0.476562"/><stop stop-opacity="1" stop-color="rgb(27.31781%, 53.807068%, 65.69519%)" offset="0.480469"/><stop stop-opacity="1" stop-color="rgb(27.429199%, 53.598022%, 65.664673%)" offset="0.484375"/><stop stop-opacity="1" stop-color="rgb(27.540588%, 53.388977%, 65.634155%)" offset="0.488281"/><stop stop-opacity="1" stop-color="rgb(27.651978%, 53.179932%, 65.603638%)" offset="0.492187"/><stop stop-opacity="1" stop-color="rgb(27.761841%, 52.970886%, 65.571594%)" offset="0.496094"/><stop stop-opacity="1" stop-color="rgb(27.87323%, 52.763367%, 65.541077%)" offset="0.5"/><stop stop-opacity="1" stop-color="rgb(27.983093%, 52.554321%, 65.509033%)" offset="0.503906"/><stop stop-opacity="1" stop-color="rgb(28.094482%, 52.345276%, 65.478516%)" offset="0.507812"/><stop stop-opacity="1" stop-color="rgb(28.205872%, 52.13623%, 65.446472%)" offset="0.511719"/><stop stop-opacity="1" stop-color="rgb(28.317261%, 51.927185%, 65.415955%)" offset="0.515625"/><stop stop-opacity="1" stop-color="rgb(28.427124%, 51.71814%, 65.383911%)" offset="0.519531"/><stop stop-opacity="1" stop-color="rgb(28.538513%, 51.51062%, 65.353394%)" offset="0.523438"/><stop stop-opacity="1" stop-color="rgb(28.648376%, 51.301575%, 65.322876%)" offset="0.527344"/><stop stop-opacity="1" stop-color="rgb(28.759766%, 51.092529%, 65.292358%)" offset="0.53125"/><stop stop-opacity="1" stop-color="rgb(28.871155%, 50.883484%, 65.260315%)" offset="0.535156"/><stop stop-opacity="1" stop-color="rgb(28.982544%, 50.674438%, 65.229797%)" offset="0.539062"/><stop stop-opacity="1" stop-color="rgb(29.092407%, 50.465393%, 65.197754%)" offset="0.542969"/><stop stop-opacity="1" stop-color="rgb(29.203796%, 50.257874%, 65.167236%)" offset="0.546875"/><stop stop-opacity="1" stop-color="rgb(29.315186%, 50.048828%, 65.135193%)" offset="0.550781"/><stop stop-opacity="1" stop-color="rgb(29.426575%, 49.839783%, 65.104675%)" offset="0.554688"/><stop stop-opacity="1" stop-color="rgb(29.536438%, 49.630737%, 65.072632%)" offset="0.558594"/><stop stop-opacity="1" stop-color="rgb(29.647827%, 49.421692%, 65.042114%)" offset="0.5625"/><stop stop-opacity="1" stop-color="rgb(29.75769%, 49.212646%, 65.011597%)" offset="0.566406"/><stop stop-opacity="1" stop-color="rgb(29.86908%, 49.005127%, 64.981079%)" offset="0.570312"/><stop stop-opacity="1" stop-color="rgb(29.980469%, 48.796082%, 64.949036%)" offset="0.574219"/><stop stop-opacity="1" stop-color="rgb(30.091858%, 48.587036%, 64.918518%)" offset="0.578125"/><stop stop-opacity="1" stop-color="rgb(30.201721%, 48.377991%, 64.886475%)" offset="0.582031"/><stop stop-opacity="1" stop-color="rgb(30.31311%, 48.170471%, 64.855957%)" offset="0.585938"/><stop stop-opacity="1" stop-color="rgb(30.422974%, 47.961426%, 64.823914%)" offset="0.589844"/><stop stop-opacity="1" stop-color="rgb(30.534363%, 47.75238%, 64.793396%)" offset="0.59375"/><stop stop-opacity="1" stop-color="rgb(30.645752%, 47.543335%, 64.762878%)" offset="0.597656"/><stop stop-opacity="1" stop-color="rgb(30.757141%, 47.33429%, 64.732361%)" offset="0.601562"/><stop stop-opacity="1" stop-color="rgb(30.867004%, 47.125244%, 64.700317%)" offset="0.605469"/><stop stop-opacity="1" stop-color="rgb(30.978394%, 46.917725%, 64.6698%)" offset="0.609375"/><stop stop-opacity="1" stop-color="rgb(31.088257%, 46.708679%, 64.637756%)" offset="0.613281"/><stop stop-opacity="1" stop-color="rgb(31.199646%, 46.499634%, 64.607239%)" offset="0.617188"/><stop stop-opacity="1" stop-color="rgb(31.311035%, 46.290588%, 64.575195%)" offset="0.621094"/><stop stop-opacity="1" stop-color="rgb(31.422424%, 46.081543%, 64.544678%)" offset="0.625"/><stop stop-opacity="1" stop-color="rgb(31.532288%, 45.872498%, 64.512634%)" offset="0.628906"/><stop stop-opacity="1" stop-color="rgb(31.643677%, 45.664978%, 64.482117%)" offset="0.632812"/><stop stop-opacity="1" stop-color="rgb(31.75354%, 45.455933%, 64.451599%)" offset="0.636719"/><stop stop-opacity="1" stop-color="rgb(31.864929%, 45.246887%, 64.421082%)" offset="0.640625"/><stop stop-opacity="1" stop-color="rgb(31.976318%, 45.037842%, 64.389038%)" offset="0.644531"/><stop stop-opacity="1" stop-color="rgb(32.087708%, 44.828796%, 64.358521%)" offset="0.648438"/><stop stop-opacity="1" stop-color="rgb(32.197571%, 44.619751%, 64.326477%)" offset="0.652344"/><stop stop-opacity="1" stop-color="rgb(32.30896%, 44.412231%, 64.295959%)" offset="0.65625"/><stop stop-opacity="1" stop-color="rgb(32.418823%, 44.203186%, 64.263916%)" offset="0.660156"/><stop stop-opacity="1" stop-color="rgb(32.530212%, 43.994141%, 64.233398%)" offset="0.664062"/><stop stop-opacity="1" stop-color="rgb(32.641602%, 43.785095%, 64.201355%)" offset="0.667969"/><stop stop-opacity="1" stop-color="rgb(32.752991%, 43.57605%, 64.170837%)" offset="0.671875"/><stop stop-opacity="1" stop-color="rgb(32.862854%, 43.367004%, 64.14032%)" offset="0.675781"/><stop stop-opacity="1" stop-color="rgb(32.974243%, 43.159485%, 64.109802%)" offset="0.679688"/><stop stop-opacity="1" stop-color="rgb(33.085632%, 42.950439%, 64.077759%)" offset="0.683594"/><stop stop-opacity="1" stop-color="rgb(33.197021%, 42.741394%, 64.047241%)" offset="0.6875"/><stop stop-opacity="1" stop-color="rgb(33.306885%, 42.532349%, 64.015198%)" offset="0.691406"/><stop stop-opacity="1" stop-color="rgb(33.418274%, 42.323303%, 63.98468%)" offset="0.695312"/><stop stop-opacity="1" stop-color="rgb(33.528137%, 42.114258%, 63.952637%)" offset="0.699219"/><stop stop-opacity="1" stop-color="rgb(33.639526%, 41.906738%, 63.922119%)" offset="0.703125"/><stop stop-opacity="1" stop-color="rgb(33.750916%, 41.697693%, 63.890076%)" offset="0.707031"/><stop stop-opacity="1" stop-color="rgb(33.862305%, 41.488647%, 63.859558%)" offset="0.710938"/><stop stop-opacity="1" stop-color="rgb(33.972168%, 41.279602%, 63.829041%)" offset="0.714844"/><stop stop-opacity="1" stop-color="rgb(34.083557%, 41.070557%, 63.798523%)" offset="0.71875"/><stop stop-opacity="1" stop-color="rgb(34.19342%, 40.861511%, 63.766479%)" offset="0.722656"/><stop stop-opacity="1" stop-color="rgb(34.30481%, 40.653992%, 63.735962%)" offset="0.726562"/><stop stop-opacity="1" stop-color="rgb(34.416199%, 40.444946%, 63.703918%)" offset="0.730469"/><stop stop-opacity="1" stop-color="rgb(34.527588%, 40.235901%, 63.673401%)" offset="0.734375"/><stop stop-opacity="1" stop-color="rgb(34.637451%, 40.026855%, 63.641357%)" offset="0.738281"/><stop stop-opacity="1" stop-color="rgb(34.74884%, 39.819336%, 63.61084%)" offset="0.742188"/><stop stop-opacity="1" stop-color="rgb(34.858704%, 39.610291%, 63.580322%)" offset="0.746094"/><stop stop-opacity="1" stop-color="rgb(34.970093%, 39.401245%, 63.549805%)" offset="0.75"/><stop stop-opacity="1" stop-color="rgb(35.081482%, 39.1922%, 63.517761%)" offset="0.753906"/><stop stop-opacity="1" stop-color="rgb(35.192871%, 38.983154%, 63.487244%)" offset="0.757812"/><stop stop-opacity="1" stop-color="rgb(35.302734%, 38.774109%, 63.4552%)" offset="0.761719"/><stop stop-opacity="1" stop-color="rgb(35.414124%, 38.566589%, 63.424683%)" offset="0.765625"/><stop stop-opacity="1" stop-color="rgb(35.523987%, 38.357544%, 63.392639%)" offset="0.769531"/><stop stop-opacity="1" stop-color="rgb(35.635376%, 38.148499%, 63.362122%)" offset="0.773438"/><stop stop-opacity="1" stop-color="rgb(35.746765%, 37.939453%, 63.330078%)" offset="0.777344"/><stop stop-opacity="1" stop-color="rgb(35.858154%, 37.730408%, 63.299561%)" offset="0.78125"/><stop stop-opacity="1" stop-color="rgb(35.968018%, 37.521362%, 63.269043%)" offset="0.785156"/><stop stop-opacity="1" stop-color="rgb(36.079407%, 37.313843%, 63.238525%)" offset="0.789062"/><stop stop-opacity="1" stop-color="rgb(36.18927%, 37.104797%, 63.206482%)" offset="0.792969"/><stop stop-opacity="1" stop-color="rgb(36.300659%, 36.895752%, 63.175964%)" offset="0.796875"/><stop stop-opacity="1" stop-color="rgb(36.412048%, 36.686707%, 63.143921%)" offset="0.800781"/><stop stop-opacity="1" stop-color="rgb(36.523438%, 36.477661%, 63.113403%)" offset="0.804688"/><stop stop-opacity="1" stop-color="rgb(36.633301%, 36.268616%, 63.08136%)" offset="0.808594"/><stop stop-opacity="1" stop-color="rgb(36.74469%, 36.061096%, 63.050842%)" offset="0.8125"/><stop stop-opacity="1" stop-color="rgb(36.856079%, 35.852051%, 63.018799%)" offset="0.816406"/><stop stop-opacity="1" stop-color="rgb(36.967468%, 35.643005%, 62.988281%)" offset="0.820312"/><stop stop-opacity="1" stop-color="rgb(37.077332%, 35.43396%, 62.957764%)" offset="0.824219"/><stop stop-opacity="1" stop-color="rgb(37.188721%, 35.224915%, 62.927246%)" offset="0.828125"/><stop stop-opacity="1" stop-color="rgb(37.298584%, 35.015869%, 62.895203%)" offset="0.832031"/><stop stop-opacity="1" stop-color="rgb(37.409973%, 34.80835%, 62.864685%)" offset="0.835938"/><stop stop-opacity="1" stop-color="rgb(37.521362%, 34.599304%, 62.832642%)" offset="0.839844"/><stop stop-opacity="1" stop-color="rgb(37.632751%, 34.390259%, 62.802124%)" offset="0.84375"/><stop stop-opacity="1" stop-color="rgb(37.742615%, 34.181213%, 62.770081%)" offset="0.847656"/><stop stop-opacity="1" stop-color="rgb(37.854004%, 33.972168%, 62.739563%)" offset="0.851562"/><stop stop-opacity="1" stop-color="rgb(37.92572%, 33.834839%, 62.719727%)" offset="0.859375"/><stop stop-opacity="1" stop-color="rgb(37.998962%, 33.699036%, 62.69989%)" offset="0.875"/><stop stop-opacity="1" stop-color="rgb(37.998962%, 33.699036%, 62.69989%)" offset="1"/></linearGradient><clipPath id="dec9e6f547"><path d="M 159 149 L 227 149 L 227 258 L 159 258 Z M 159 149 " clip-rule="nonzero"/></clipPath><clipPath id="c3113afed7"><path d="M 192.820312 257.761719 C 174.382812 257.761719 159.386719 242.765625 159.386719 224.328125 L 173.367188 224.328125 C 173.367188 235.0625 182.101562 243.78125 192.820312 243.78125 C 203.542969 243.78125 212.277344 235.050781 212.277344 224.328125 L 212.277344 149.859375 L 226.253906 149.859375 L 226.253906 224.328125 C 226.253906 242.765625 211.257812 257.761719 192.820312 257.761719 Z M 192.820312 257.761719 " clip-rule="nonzero"/></clipPath></defs><g fill="#6f6f6e" fill-opacity="1"><g transform="translate(11.508776, 218.417623)"><g><path d="M 49.9375 -36.609375 C 52.75 -34.929688 54.890625 -32.789062 56.359375 -30.1875 C 57.828125 -27.582031 58.5625 -24.570312 58.5625 -21.15625 C 58.5625 -17.945312 57.789062 -14.953125 56.25 -12.171875 C 54.71875 -9.398438 52.546875 -6.945312 49.734375 -4.8125 C 47.191406 -2.875 44.300781 -1.382812 41.0625 -0.34375 C 37.820312 0.6875 34.394531 1.234375 30.78125 1.296875 C 27.175781 1.296875 23.734375 0.796875 20.453125 -0.203125 C 17.179688 -1.203125 14.273438 -2.707031 11.734375 -4.71875 C 7.921875 -7.59375 5.3125 -11.066406 3.90625 -15.140625 L 17.953125 -21.65625 C 17.953125 -20.988281 18.1875 -20.15625 18.65625 -19.15625 C 19.125 -18.15625 19.859375 -17.1875 20.859375 -16.25 C 21.859375 -15.3125 23.160156 -14.507812 24.765625 -13.84375 C 26.367188 -13.175781 28.34375 -12.84375 30.6875 -12.84375 C 32.5625 -12.84375 34.21875 -13.070312 35.65625 -13.53125 C 37.09375 -14 38.296875 -14.582031 39.265625 -15.28125 C 40.234375 -15.988281 40.96875 -16.789062 41.46875 -17.6875 C 41.96875 -18.59375 42.21875 -19.515625 42.21875 -20.453125 C 42.21875 -21.523438 41.863281 -22.53125 41.15625 -23.46875 C 40.457031 -24.40625 39.375 -25.140625 37.90625 -25.671875 C 35.226562 -26.609375 32.398438 -27.394531 29.421875 -28.03125 C 26.453125 -28.664062 23.5625 -29.46875 20.75 -30.4375 C 17.945312 -31.40625 15.34375 -32.691406 12.9375 -34.296875 C 10.53125 -35.898438 8.625 -38.140625 7.21875 -41.015625 C 5.945312 -43.554688 5.3125 -46.265625 5.3125 -49.140625 C 5.3125 -52.347656 6.0625 -55.457031 7.5625 -58.46875 C 9.070312 -61.476562 11.128906 -64.015625 13.734375 -66.078125 C 16.210938 -68.023438 18.988281 -69.515625 22.0625 -70.546875 C 25.132812 -71.585938 28.378906 -72.109375 31.796875 -72.109375 C 35.203125 -72.109375 38.457031 -71.601562 41.5625 -70.59375 C 44.675781 -69.59375 47.46875 -68.125 49.9375 -66.1875 C 52.34375 -64.382812 54.25 -62.28125 55.65625 -59.875 L 44.21875 -52.046875 C 42.820312 -53.984375 41.066406 -55.535156 38.953125 -56.703125 C 36.847656 -57.878906 34.492188 -58.46875 31.890625 -58.46875 C 28.273438 -58.46875 25.484375 -57.664062 23.515625 -56.0625 C 21.546875 -54.457031 20.5625 -52.347656 20.5625 -49.734375 C 20.5625 -48.535156 21.109375 -47.46875 22.203125 -46.53125 C 23.304688 -45.59375 24.742188 -44.753906 26.515625 -44.015625 C 28.296875 -43.285156 30.285156 -42.632812 32.484375 -42.0625 C 34.691406 -41.5 36.878906 -40.929688 39.046875 -40.359375 C 41.222656 -39.796875 43.28125 -39.210938 45.21875 -38.609375 C 47.164062 -38.003906 48.738281 -37.335938 49.9375 -36.609375 Z M 49.9375 -36.609375 "/></g></g></g><g fill="#2fb4ae" fill-opacity="1"><g transform="translate(82.30174, 218.417623)"><g><path d="M 38.203125 -13.84375 C 41.410156 -13.84375 44.550781 -14.578125 47.625 -16.046875 C 50.707031 -17.515625 53.816406 -19.988281 56.953125 -23.46875 L 66.78125 -14.140625 C 62.84375 -9.054688 58.347656 -5.210938 53.296875 -2.609375 C 48.253906 -0.00390625 43.054688 1.296875 37.703125 1.296875 C 32.890625 1.296875 28.375 0.3125 24.15625 -1.65625 C 19.945312 -3.625 16.289062 -6.28125 13.1875 -9.625 C 10.082031 -12.96875 7.640625 -16.863281 5.859375 -21.3125 C 4.085938 -25.757812 3.203125 -30.488281 3.203125 -35.5 C 3.203125 -40.507812 4.117188 -45.21875 5.953125 -49.625 C 7.796875 -54.039062 10.289062 -57.921875 13.4375 -61.265625 C 16.582031 -64.609375 20.289062 -67.25 24.5625 -69.1875 C 28.84375 -71.132812 33.390625 -72.109375 38.203125 -72.109375 C 42.679688 -72.109375 46.941406 -71.269531 50.984375 -69.59375 C 55.035156 -67.925781 59 -65.148438 62.875 -61.265625 L 54.046875 -50.546875 C 51.242188 -53.148438 48.585938 -54.898438 46.078125 -55.796875 C 43.566406 -56.703125 40.941406 -57.15625 38.203125 -57.15625 C 35.460938 -57.15625 32.875 -56.585938 30.4375 -55.453125 C 28 -54.316406 25.875 -52.78125 24.0625 -50.84375 C 22.257812 -48.90625 20.835938 -46.613281 19.796875 -43.96875 C 18.765625 -41.332031 18.25 -38.507812 18.25 -35.5 C 18.25 -32.488281 18.765625 -29.679688 19.796875 -27.078125 C 20.835938 -24.472656 22.257812 -22.179688 24.0625 -20.203125 C 25.875 -18.234375 28 -16.679688 30.4375 -15.546875 C 32.875 -14.410156 35.460938 -13.84375 38.203125 -13.84375 Z M 38.203125 -13.84375 "/></g></g></g><g fill="#ffffff" fill-opacity="1"><g transform="translate(161.016583, 218.417623)"><g/></g></g><g fill="#ffffff" fill-opacity="1"><g transform="translate(197.614989, 218.417623)"><g/></g></g><g fill="#6156a0" fill-opacity="1"><g transform="translate(234.223605, 218.417623)"><g><path d="M 44.921875 -71.09375 L 60.0625 -71.09375 L 60.0625 -25.671875 C 60.0625 -22.128906 59.328125 -18.71875 57.859375 -15.4375 C 56.390625 -12.164062 54.382812 -9.289062 51.84375 -6.8125 C 49.300781 -4.34375 46.34375 -2.375 42.96875 -0.90625 C 39.59375 0.5625 35.96875 1.296875 32.09375 1.296875 C 28.28125 1.296875 24.664062 0.5625 21.25 -0.90625 C 17.84375 -2.375 14.882812 -4.34375 12.375 -6.8125 C 9.875 -9.289062 7.890625 -12.164062 6.421875 -15.4375 C 4.953125 -18.71875 4.21875 -22.128906 4.21875 -25.671875 L 4.21875 -71.09375 L 19.359375 -71.09375 L 19.359375 -28.6875 C 19.359375 -26.675781 19.691406 -24.785156 20.359375 -23.015625 C 21.023438 -21.242188 21.925781 -19.671875 23.0625 -18.296875 C 24.195312 -16.929688 25.550781 -15.847656 27.125 -15.046875 C 28.695312 -14.242188 30.351562 -13.84375 32.09375 -13.84375 C 33.894531 -13.84375 35.5625 -14.242188 37.09375 -15.046875 C 38.632812 -15.847656 39.988281 -16.929688 41.15625 -18.296875 C 42.332031 -19.671875 43.253906 -21.242188 43.921875 -23.015625 C 44.585938 -24.785156 44.921875 -26.675781 44.921875 -28.6875 Z M 44.921875 -71.09375 "/></g></g></g><g fill="#6f6f6e" fill-opacity="1"><g transform="translate(307.430636, 218.417623)"><g><path d="M 2.3125 -71.09375 L 53.75 -71.09375 L 53.75 -57.265625 L 35.59375 -57.265625 L 35.59375 0 L 20.453125 0 L 20.453125 -57.265625 L 2.3125 -57.265625 Z M 2.3125 -71.09375 "/></g></g></g><path fill="#6f6f6e" d="M 226.253906 149.859375 L 212.277344 149.859375 C 212.277344 139.128906 203.542969 130.40625 192.820312 130.40625 C 182.101562 130.40625 173.367188 139.136719 173.367188 149.859375 L 159.375 149.859375 C 159.375 131.421875 174.375 116.425781 192.808594 116.425781 C 211.246094 116.425781 226.253906 131.421875 226.253906 149.859375 Z M 226.253906 149.859375 " fill-opacity="0.8" fill-rule="nonzero"/><g clip-path="url(#ae2c762c70)"><g clip-path="url(#bb3d27a61f)"><path fill="url(#9c3da9e71e)" d="M 192.828125 111.003906 L 124.335938 179.492188 L 192.824219 247.984375 L 261.316406 179.492188 Z M 192.828125 111.003906 " fill-rule="nonzero"/></g></g><path fill="#2fb4ae" d="M 159.375 149.859375 L 173.355469 149.859375 L 173.355469 224.328125 L 159.375 224.328125 Z M 159.375 149.859375 " fill-opacity="0.8" fill-rule="nonzero"/><g clip-path="url(#dec9e6f547)"><g clip-path="url(#c3113afed7)"><path fill="#6156a0" d="M 159.386719 149.859375 L 159.386719 257.761719 L 226.253906 257.761719 L 226.253906 149.859375 Z M 159.386719 149.859375 " fill-opacity="1" fill-rule="nonzero"/></g></g></svg>